<svg width="512" height="512" viewBox="0 0 512 512" fill="none" xmlns="http://www.w3.org/2000/svg">
<g filter="url(#filter0_d)">
<path fill-rule="evenodd" clip-rule="evenodd" d="M183.217 418.562L172.5 400L161.783 418.562C160.651 420.443 160 422.645 160 425C160 431.904 165.596 437.5 172.5 437.5C179.404 437.5 185 431.904 185 425C185 422.645 184.349 420.443 183.217 418.562Z" fill="#FBBD00"/>
</g>
<line x1="170" y1="284.966" x2="172" y2="403.966" stroke="#FBBD00" stroke-width="4"/>
<g filter="url(#filter1_d)">
<rect x="122.049" y="203.549" width="253" height="97" rx="3.5" transform="rotate(-30 122.049 203.549)" stroke="#FBBD00" stroke-width="3"/>
</g>
<g filter="url(#filter2_d)">
<path d="M203.314 206.062L200.768 207.532L183.203 198.501L183.106 198.557C183.465 199.104 183.911 199.784 184.445 200.596C184.979 201.409 185.502 202.26 186.016 203.149L191.602 212.824L189.589 213.986L179.593 196.672L182.115 195.216L199.628 204.213L199.725 204.157C199.559 203.908 199.311 203.534 198.98 203.036C198.665 202.528 198.314 201.976 197.927 201.38C197.556 200.775 197.221 200.214 196.923 199.697L191.281 189.924L193.318 188.748L203.314 206.062ZM215.255 190.47C216.497 192.62 216.908 194.603 216.49 196.418C216.088 198.223 214.958 199.662 213.099 200.736C211.951 201.398 210.775 201.732 209.571 201.738C208.374 201.718 207.228 201.356 206.132 200.652C205.026 199.932 204.058 198.853 203.228 197.414C201.986 195.264 201.571 193.295 201.982 191.505C202.394 189.716 203.529 188.285 205.388 187.212C206.568 186.53 207.756 186.2 208.954 186.22C210.158 186.214 211.299 186.568 212.379 187.281C213.466 187.969 214.425 189.032 215.255 190.47ZM205.434 196.14C206.321 197.676 207.325 198.724 208.446 199.284C209.573 199.818 210.8 199.703 212.126 198.938C213.435 198.182 214.14 197.182 214.241 195.938C214.333 194.678 213.935 193.28 213.049 191.744C212.162 190.209 211.159 189.182 210.041 188.663C208.923 188.145 207.701 188.269 206.375 189.034C205.05 189.799 204.34 190.791 204.246 192.009C204.152 193.228 204.548 194.605 205.434 196.14ZM225.876 191.031C226.199 190.845 226.516 190.629 226.828 190.385C227.13 190.124 227.367 189.901 227.54 189.715L228.478 191.339C228.317 191.583 228.045 191.859 227.662 192.166C227.289 192.49 226.908 192.763 226.52 192.987C225.841 193.379 225.145 193.63 224.433 193.74C223.727 193.824 223.028 193.678 222.336 193.301C221.645 192.924 220.996 192.211 220.389 191.16L216.021 183.594L214.178 184.658L213.59 183.64L214.967 181.713L214.22 178.459L215.481 177.731L217.203 180.713L220.961 178.543L221.913 180.192L218.155 182.362L222.495 189.879C222.952 190.672 223.479 191.154 224.074 191.328C224.677 191.475 225.278 191.377 225.876 191.031ZM239.937 184.917L237.755 186.177L227.759 168.864L237.434 163.278L238.54 165.194L231.047 169.52L234.589 175.654L241.621 171.594L242.727 173.51L235.695 177.57L239.937 184.917ZM257.572 166.039C258.813 168.189 259.225 170.171 258.807 171.986C258.405 173.791 257.275 175.231 255.416 176.304C254.268 176.967 253.092 177.301 251.888 177.306C250.691 177.286 249.545 176.924 248.449 176.221C247.343 175.501 246.375 174.422 245.545 172.983C244.303 170.833 243.888 168.863 244.299 167.074C244.71 165.285 245.846 163.853 247.705 162.78C248.885 162.099 250.073 161.768 251.27 161.788C252.474 161.783 253.616 162.137 254.696 162.849C255.783 163.537 256.741 164.6 257.572 166.039ZM247.751 171.709C248.638 173.245 249.642 174.292 250.763 174.852C251.89 175.387 253.117 175.271 254.442 174.506C255.752 173.75 256.457 172.75 256.558 171.506C256.65 170.246 256.252 168.849 255.365 167.313C254.479 165.777 253.476 164.75 252.358 164.232C251.24 163.713 250.018 163.837 248.692 164.602C247.367 165.368 246.657 166.359 246.563 167.578C246.468 168.796 246.865 170.173 247.751 171.709ZM268.079 151.34L275.583 164.337L273.837 165.345L272.528 163.805L272.431 163.861C272.403 164.783 272.11 165.62 271.553 166.373C270.987 167.109 270.284 167.72 269.443 168.206C267.875 169.111 266.48 169.42 265.259 169.134C264.028 168.832 262.936 167.856 261.984 166.207L257.07 157.696L259.229 156.45L264.059 164.816C265.253 166.885 266.812 167.364 268.736 166.253C270.175 165.423 270.936 164.445 271.019 163.319C271.118 162.184 270.729 160.857 269.852 159.337L265.946 152.572L268.079 151.34ZM278.322 145.103C279.874 144.207 281.265 143.91 282.496 144.213C283.717 144.499 284.813 145.483 285.784 147.164L290.67 155.627L288.56 156.845L283.758 148.528C282.554 146.442 280.982 145.959 279.043 147.079C277.604 147.91 276.843 148.888 276.76 150.014C276.677 151.139 277.074 152.462 277.952 153.982L281.844 160.723L279.71 161.955L272.206 148.958L273.927 147.964L275.265 149.552L275.386 149.482C275.414 148.56 275.707 147.723 276.264 146.97C276.811 146.201 277.497 145.579 278.322 145.103ZM299.447 150.883C297.83 151.816 296.215 152.005 294.601 151.45C292.978 150.878 291.522 149.477 290.234 147.246C288.946 145.015 288.46 143.054 288.777 141.362C289.1 139.645 290.07 138.32 291.687 137.387C292.689 136.808 293.613 136.523 294.458 136.53C295.319 136.529 296.106 136.678 296.818 136.978L296.964 136.894C296.826 136.694 296.616 136.405 296.335 136.029C296.06 135.627 295.852 135.305 295.712 135.063L292.716 129.874L294.85 128.642L305.49 147.071L303.768 148.065L302.445 146.501L302.348 146.557C302.277 147.33 302.031 148.098 301.608 148.859C301.186 149.62 300.465 150.295 299.447 150.883ZM298.764 148.917C300.138 148.124 300.885 147.196 301.006 146.135C301.133 145.049 300.758 143.746 299.88 142.226L299.656 141.838C298.723 140.222 297.742 139.139 296.714 138.59C295.677 138.025 294.439 138.158 293 138.989C291.852 139.652 291.253 140.612 291.203 141.869C291.16 143.101 291.582 144.485 292.469 146.021C293.365 147.573 294.343 148.614 295.403 149.144C296.48 149.664 297.6 149.589 298.764 148.917ZM308.695 138.721L307.313 139.519L299.525 127.43L302.12 125.932L308.695 138.721ZM308.547 143.56C308.201 142.962 308.104 142.457 308.255 142.047C308.406 141.636 308.692 141.31 309.112 141.067C309.516 140.834 309.934 140.754 310.365 140.829C310.812 140.894 311.208 141.226 311.554 141.824C311.89 142.406 311.979 142.915 311.821 143.351C311.679 143.777 311.406 144.107 311.002 144.341C310.582 144.583 310.152 144.659 309.711 144.569C309.271 144.478 308.883 144.142 308.547 143.56ZM259.955 212.001L257.433 213.457L259.701 217.385L257.64 218.575L255.372 214.647L247.079 219.435L246.029 217.616L247.443 201.249L249.649 199.975L256.327 211.541L258.849 210.085L259.955 212.001ZM251.116 207.275C250.631 206.435 250.236 205.714 249.933 205.114C249.62 204.497 249.317 203.917 249.025 203.374L248.928 203.43C248.976 203.812 249.006 204.237 249.017 204.704C249.029 205.172 249.015 205.578 248.978 205.924L248.058 216.315L254.266 212.731L251.116 207.275ZM270.385 199.643C271.458 201.502 272.188 203.214 272.575 204.78C272.952 206.329 272.926 207.703 272.496 208.899C272.066 210.096 271.156 211.095 269.765 211.898C267.809 213.027 265.91 213.079 264.067 212.052C262.231 211 260.505 209.075 258.891 206.279C257.808 204.403 257.07 202.696 256.676 201.155C256.299 199.606 256.33 198.241 256.769 197.06C257.199 195.864 258.101 194.869 259.475 194.075C261.415 192.955 263.315 192.904 265.174 193.921C267.024 194.923 268.761 196.83 270.385 199.643ZM261.025 205.047C262.397 207.423 263.69 209.047 264.905 209.919C266.136 210.782 267.406 210.835 268.715 210.079C270.009 209.333 270.594 208.219 270.472 206.738C270.356 205.231 269.608 203.281 268.226 200.889C266.864 198.528 265.559 196.922 264.312 196.068C263.081 195.205 261.819 195.147 260.525 195.894C259.216 196.65 258.627 197.777 258.759 199.274C258.907 200.762 259.662 202.686 261.025 205.047ZM287.709 195.978L285.187 197.434L287.455 201.362L285.394 202.552L283.126 198.624L274.832 203.412L273.782 201.593L275.196 185.225L277.403 183.951L284.081 195.518L286.603 194.062L287.709 195.978ZM278.87 191.252C278.384 190.411 277.99 189.691 277.686 189.09C277.373 188.473 277.071 187.893 276.779 187.351L276.682 187.407C276.73 187.788 276.759 188.213 276.771 188.681C276.782 189.149 276.769 189.555 276.731 189.9L275.812 200.292L282.02 196.708L278.87 191.252Z" fill="#FBBD00"/>
</g>
<defs>
<filter id="filter0_d" x="156" y="400" width="33" height="45.5" filterUnits="userSpaceOnUse" color-interpolation-filters="sRGB">
<feFlood flood-opacity="0" result="BackgroundImageFix"/>
<feColorMatrix in="SourceAlpha" type="matrix" values="0 0 0 0 0 0 0 0 0 0 0 0 0 0 0 0 0 0 127 0"/>
<feOffset dy="4"/>
<feGaussianBlur stdDeviation="2"/>
<feColorMatrix type="matrix" values="0 0 0 0 0 0 0 0 0 0 0 0 0 0 0 0 0 0 0.25 0"/>
<feBlend mode="normal" in2="BackgroundImageFix" result="effect1_dropShadow"/>
<feBlend mode="normal" in="SourceGraphic" in2="effect1_dropShadow" result="shape"/>
</filter>
<filter id="filter1_d" x="118" y="75" width="275.703" height="218.603" filterUnits="userSpaceOnUse" color-interpolation-filters="sRGB">
<feFlood flood-opacity="0" result="BackgroundImageFix"/>
<feColorMatrix in="SourceAlpha" type="matrix" values="0 0 0 0 0 0 0 0 0 0 0 0 0 0 0 0 0 0 127 0"/>
<feOffset dy="2"/>
<feGaussianBlur stdDeviation="1"/>
<feColorMatrix type="matrix" values="0 0 0 0 0 0 0 0 0 0 0 0 0 0 0 0 0 0 0.25 0"/>
<feBlend mode="normal" in2="BackgroundImageFix" result="effect1_dropShadow"/>
<feBlend mode="normal" in="SourceGraphic" in2="effect1_dropShadow" result="shape"/>
</filter>
<filter id="filter2_d" x="179.593" y="125.932" width="140.304" height="101.503" filterUnits="userSpaceOnUse" color-interpolation-filters="sRGB">
<feFlood flood-opacity="0" result="BackgroundImageFix"/>
<feColorMatrix in="SourceAlpha" type="matrix" values="0 0 0 0 0 0 0 0 0 0 0 0 0 0 0 0 0 0 127 0"/>
<feOffset dx="4" dy="4"/>
<feGaussianBlur stdDeviation="2"/>
<feColorMatrix type="matrix" values="0 0 0 0 0 0 0 0 0 0 0 0 0 0 0 0 0 0 0.25 0"/>
<feBlend mode="normal" in2="BackgroundImageFix" result="effect1_dropShadow"/>
<feBlend mode="normal" in="SourceGraphic" in2="effect1_dropShadow" result="shape"/>
</filter>
</defs>
</svg>
